<mxfile host="app.diagrams.net" agent="Mozilla/5.0 (Windows NT 10.0; Win64; x64) AppleWebKit/537.36 (KHTML, like Gecko) Chrome/141.0.0.0 Safari/537.36" version="28.2.6">
  <diagram name="Page-1" id="HCgrVQbbOgef8wqBrN5N">
    <mxGraphModel dx="1426" dy="1883" grid="1" gridSize="10" guides="1" tooltips="1" connect="1" arrows="1" fold="1" page="1" pageScale="1" pageWidth="850" pageHeight="1100" math="0" shadow="0">
      <root>
        <mxCell id="0" />
        <mxCell id="1" parent="0" />
        <mxCell id="0AotN9j1iEKzL87ZU6Ct-2" value="user" style="shape=umlActor;verticalLabelPosition=bottom;verticalAlign=top;html=1;outlineConnect=0;" vertex="1" parent="1">
          <mxGeometry x="70" y="160" width="30" height="60" as="geometry" />
        </mxCell>
        <mxCell id="0AotN9j1iEKzL87ZU6Ct-4" value="admin&lt;div&gt;&lt;br&gt;&lt;/div&gt;" style="shape=umlActor;verticalLabelPosition=bottom;verticalAlign=top;html=1;outlineConnect=0;" vertex="1" parent="1">
          <mxGeometry x="940" y="130" width="30" height="60" as="geometry" />
        </mxCell>
        <mxCell id="0AotN9j1iEKzL87ZU6Ct-5" value="login" style="ellipse;whiteSpace=wrap;html=1;" vertex="1" parent="1">
          <mxGeometry x="460" y="70" width="120" height="80" as="geometry" />
        </mxCell>
        <mxCell id="0AotN9j1iEKzL87ZU6Ct-7" value="" style="endArrow=classic;html=1;rounded=0;entryX=0.5;entryY=1;entryDx=0;entryDy=0;" edge="1" parent="1" target="0AotN9j1iEKzL87ZU6Ct-8">
          <mxGeometry width="50" height="50" relative="1" as="geometry">
            <mxPoint x="90" y="150" as="sourcePoint" />
            <mxPoint x="170" y="150" as="targetPoint" />
          </mxGeometry>
        </mxCell>
        <mxCell id="0AotN9j1iEKzL87ZU6Ct-8" value="register" style="ellipse;whiteSpace=wrap;html=1;" vertex="1" parent="1">
          <mxGeometry x="100" y="-50" width="90" height="60" as="geometry" />
        </mxCell>
        <mxCell id="0AotN9j1iEKzL87ZU6Ct-9" value="" style="endArrow=classic;html=1;rounded=0;entryX=0;entryY=0.5;entryDx=0;entryDy=0;" edge="1" parent="1" target="0AotN9j1iEKzL87ZU6Ct-5">
          <mxGeometry width="50" height="50" relative="1" as="geometry">
            <mxPoint x="120" y="180" as="sourcePoint" />
            <mxPoint x="377" y="88" as="targetPoint" />
          </mxGeometry>
        </mxCell>
        <mxCell id="0AotN9j1iEKzL87ZU6Ct-11" value="" style="endArrow=classic;html=1;rounded=0;entryX=0;entryY=0.5;entryDx=0;entryDy=0;" edge="1" parent="1" target="0AotN9j1iEKzL87ZU6Ct-12">
          <mxGeometry width="50" height="50" relative="1" as="geometry">
            <mxPoint x="120" y="210" as="sourcePoint" />
            <mxPoint x="230" y="290" as="targetPoint" />
          </mxGeometry>
        </mxCell>
        <mxCell id="0AotN9j1iEKzL87ZU6Ct-12" value="&lt;div&gt;booking&lt;/div&gt;&lt;div&gt;tiket&lt;/div&gt;" style="ellipse;whiteSpace=wrap;html=1;" vertex="1" parent="1">
          <mxGeometry x="260" y="250" width="90" height="60" as="geometry" />
        </mxCell>
        <mxCell id="0AotN9j1iEKzL87ZU6Ct-13" value="isi&amp;nbsp;&lt;div&gt;data&lt;/div&gt;&lt;div&gt;tiket&lt;/div&gt;" style="ellipse;whiteSpace=wrap;html=1;" vertex="1" parent="1">
          <mxGeometry x="200" y="180" width="90" height="60" as="geometry" />
        </mxCell>
        <mxCell id="0AotN9j1iEKzL87ZU6Ct-14" value="" style="endArrow=classic;html=1;rounded=0;entryX=0.5;entryY=1;entryDx=0;entryDy=0;strokeColor=default;dashed=1;exitX=0;exitY=0;exitDx=0;exitDy=0;" edge="1" parent="1" source="0AotN9j1iEKzL87ZU6Ct-12" target="0AotN9j1iEKzL87ZU6Ct-13">
          <mxGeometry width="50" height="50" relative="1" as="geometry">
            <mxPoint x="290" y="270" as="sourcePoint" />
            <mxPoint x="290" y="250" as="targetPoint" />
          </mxGeometry>
        </mxCell>
        <mxCell id="0AotN9j1iEKzL87ZU6Ct-15" value="include" style="edgeLabel;html=1;align=center;verticalAlign=middle;resizable=0;points=[];" vertex="1" connectable="0" parent="0AotN9j1iEKzL87ZU6Ct-14">
          <mxGeometry x="-0.1925" y="-2" relative="1" as="geometry">
            <mxPoint x="-5" y="-1" as="offset" />
          </mxGeometry>
        </mxCell>
        <mxCell id="0AotN9j1iEKzL87ZU6Ct-16" value="" style="endArrow=classic;html=1;rounded=0;entryX=0.443;entryY=1.002;entryDx=0;entryDy=0;strokeColor=default;dashed=1;entryPerimeter=0;exitX=0.5;exitY=0;exitDx=0;exitDy=0;" edge="1" parent="1" source="0AotN9j1iEKzL87ZU6Ct-12" target="0AotN9j1iEKzL87ZU6Ct-5">
          <mxGeometry width="50" height="50" relative="1" as="geometry">
            <mxPoint x="330" y="260" as="sourcePoint" />
            <mxPoint x="235" y="270" as="targetPoint" />
          </mxGeometry>
        </mxCell>
        <mxCell id="0AotN9j1iEKzL87ZU6Ct-17" value="include" style="edgeLabel;html=1;align=center;verticalAlign=middle;resizable=0;points=[];" vertex="1" connectable="0" parent="0AotN9j1iEKzL87ZU6Ct-16">
          <mxGeometry x="-0.1925" y="-2" relative="1" as="geometry">
            <mxPoint x="-5" y="-1" as="offset" />
          </mxGeometry>
        </mxCell>
        <mxCell id="0AotN9j1iEKzL87ZU6Ct-91" style="edgeStyle=orthogonalEdgeStyle;rounded=0;orthogonalLoop=1;jettySize=auto;html=1;exitX=0.5;exitY=1;exitDx=0;exitDy=0;entryX=0;entryY=0.5;entryDx=0;entryDy=0;dashed=1;" edge="1" parent="1" source="0AotN9j1iEKzL87ZU6Ct-18" target="0AotN9j1iEKzL87ZU6Ct-90">
          <mxGeometry relative="1" as="geometry">
            <Array as="points">
              <mxPoint x="145" y="500" />
              <mxPoint x="385" y="500" />
              <mxPoint x="385" y="230" />
            </Array>
          </mxGeometry>
        </mxCell>
        <mxCell id="0AotN9j1iEKzL87ZU6Ct-92" value="extend" style="edgeLabel;html=1;align=center;verticalAlign=middle;resizable=0;points=[];" vertex="1" connectable="0" parent="0AotN9j1iEKzL87ZU6Ct-91">
          <mxGeometry x="0.1205" y="-1" relative="1" as="geometry">
            <mxPoint as="offset" />
          </mxGeometry>
        </mxCell>
        <mxCell id="0AotN9j1iEKzL87ZU6Ct-18" value="lihat tiket&lt;div&gt;yg dibooking&lt;/div&gt;" style="ellipse;whiteSpace=wrap;html=1;" vertex="1" parent="1">
          <mxGeometry x="100" y="290" width="90" height="60" as="geometry" />
        </mxCell>
        <mxCell id="0AotN9j1iEKzL87ZU6Ct-19" value="" style="endArrow=classic;html=1;rounded=0;entryX=0;entryY=0;entryDx=0;entryDy=0;" edge="1" parent="1" target="0AotN9j1iEKzL87ZU6Ct-18">
          <mxGeometry width="50" height="50" relative="1" as="geometry">
            <mxPoint x="110" y="230" as="sourcePoint" />
            <mxPoint x="285" y="310" as="targetPoint" />
          </mxGeometry>
        </mxCell>
        <mxCell id="0AotN9j1iEKzL87ZU6Ct-21" value="" style="endArrow=classic;html=1;rounded=0;strokeColor=default;dashed=1;exitX=0;exitY=1;exitDx=0;exitDy=0;" edge="1" parent="1" source="0AotN9j1iEKzL87ZU6Ct-12" target="0AotN9j1iEKzL87ZU6Ct-18">
          <mxGeometry width="50" height="50" relative="1" as="geometry">
            <mxPoint x="190" y="400" as="sourcePoint" />
            <mxPoint x="285" y="360" as="targetPoint" />
          </mxGeometry>
        </mxCell>
        <mxCell id="0AotN9j1iEKzL87ZU6Ct-22" value="extend" style="edgeLabel;html=1;align=center;verticalAlign=middle;resizable=0;points=[];" vertex="1" connectable="0" parent="0AotN9j1iEKzL87ZU6Ct-21">
          <mxGeometry x="-0.1925" y="-2" relative="1" as="geometry">
            <mxPoint x="-5" y="-1" as="offset" />
          </mxGeometry>
        </mxCell>
        <mxCell id="0AotN9j1iEKzL87ZU6Ct-25" value="konfirmasi&lt;div&gt;booking&lt;/div&gt;" style="ellipse;whiteSpace=wrap;html=1;" vertex="1" parent="1">
          <mxGeometry x="700" y="10" width="90" height="60" as="geometry" />
        </mxCell>
        <mxCell id="0AotN9j1iEKzL87ZU6Ct-27" value="" style="endArrow=classic;html=1;rounded=0;entryX=1;entryY=0.5;entryDx=0;entryDy=0;" edge="1" parent="1" target="0AotN9j1iEKzL87ZU6Ct-25">
          <mxGeometry width="50" height="50" relative="1" as="geometry">
            <mxPoint x="920" y="140" as="sourcePoint" />
            <mxPoint x="477" y="48" as="targetPoint" />
          </mxGeometry>
        </mxCell>
        <mxCell id="0AotN9j1iEKzL87ZU6Ct-28" value="lihat daftar&lt;div&gt;hewan&lt;/div&gt;" style="ellipse;whiteSpace=wrap;html=1;" vertex="1" parent="1">
          <mxGeometry x="250" y="20" width="90" height="60" as="geometry" />
        </mxCell>
        <mxCell id="0AotN9j1iEKzL87ZU6Ct-30" value="&lt;div&gt;tolak&lt;/div&gt;&lt;div&gt;booking&lt;/div&gt;" style="ellipse;whiteSpace=wrap;html=1;" vertex="1" parent="1">
          <mxGeometry x="860" y="-100" width="90" height="60" as="geometry" />
        </mxCell>
        <mxCell id="0AotN9j1iEKzL87ZU6Ct-31" value="setujui&lt;div&gt;booking&lt;/div&gt;" style="ellipse;whiteSpace=wrap;html=1;" vertex="1" parent="1">
          <mxGeometry x="690" y="-120" width="90" height="60" as="geometry" />
        </mxCell>
        <mxCell id="0AotN9j1iEKzL87ZU6Ct-32" value="" style="endArrow=classic;html=1;rounded=0;strokeColor=default;dashed=1;entryX=0.5;entryY=0;entryDx=0;entryDy=0;exitX=0.5;exitY=1;exitDx=0;exitDy=0;" edge="1" parent="1" source="0AotN9j1iEKzL87ZU6Ct-31" target="0AotN9j1iEKzL87ZU6Ct-25">
          <mxGeometry width="50" height="50" relative="1" as="geometry">
            <mxPoint x="460" y="270" as="sourcePoint" />
            <mxPoint x="515" y="170" as="targetPoint" />
          </mxGeometry>
        </mxCell>
        <mxCell id="0AotN9j1iEKzL87ZU6Ct-33" value="extend" style="edgeLabel;html=1;align=center;verticalAlign=middle;resizable=0;points=[];" vertex="1" connectable="0" parent="0AotN9j1iEKzL87ZU6Ct-32">
          <mxGeometry x="-0.1925" y="-2" relative="1" as="geometry">
            <mxPoint x="-5" y="-1" as="offset" />
          </mxGeometry>
        </mxCell>
        <mxCell id="0AotN9j1iEKzL87ZU6Ct-34" value="" style="endArrow=classic;html=1;rounded=0;strokeColor=default;dashed=1;entryX=0.767;entryY=0.017;entryDx=0;entryDy=0;exitX=0;exitY=1;exitDx=0;exitDy=0;entryPerimeter=0;" edge="1" parent="1" source="0AotN9j1iEKzL87ZU6Ct-30" target="0AotN9j1iEKzL87ZU6Ct-25">
          <mxGeometry width="50" height="50" relative="1" as="geometry">
            <mxPoint x="495" y="170" as="sourcePoint" />
            <mxPoint x="553" y="249" as="targetPoint" />
          </mxGeometry>
        </mxCell>
        <mxCell id="0AotN9j1iEKzL87ZU6Ct-35" value="extend" style="edgeLabel;html=1;align=center;verticalAlign=middle;resizable=0;points=[];" vertex="1" connectable="0" parent="0AotN9j1iEKzL87ZU6Ct-34">
          <mxGeometry x="-0.1925" y="-2" relative="1" as="geometry">
            <mxPoint x="-5" y="-1" as="offset" />
          </mxGeometry>
        </mxCell>
        <mxCell id="0AotN9j1iEKzL87ZU6Ct-38" value="tambah&lt;div&gt;hewan&lt;/div&gt;" style="ellipse;whiteSpace=wrap;html=1;" vertex="1" parent="1">
          <mxGeometry x="530" y="440" width="90" height="60" as="geometry" />
        </mxCell>
        <mxCell id="0AotN9j1iEKzL87ZU6Ct-39" value="" style="endArrow=classic;html=1;rounded=0;strokeColor=default;dashed=1;exitX=0.744;exitY=0.083;exitDx=0;exitDy=0;entryX=0;entryY=1;entryDx=0;entryDy=0;exitPerimeter=0;" edge="1" parent="1" source="0AotN9j1iEKzL87ZU6Ct-38" target="0AotN9j1iEKzL87ZU6Ct-36">
          <mxGeometry width="50" height="50" relative="1" as="geometry">
            <mxPoint x="495" y="170" as="sourcePoint" />
            <mxPoint x="553" y="249" as="targetPoint" />
          </mxGeometry>
        </mxCell>
        <mxCell id="0AotN9j1iEKzL87ZU6Ct-40" value="extend" style="edgeLabel;html=1;align=center;verticalAlign=middle;resizable=0;points=[];" vertex="1" connectable="0" parent="0AotN9j1iEKzL87ZU6Ct-39">
          <mxGeometry x="-0.1925" y="-2" relative="1" as="geometry">
            <mxPoint x="-5" y="-1" as="offset" />
          </mxGeometry>
        </mxCell>
        <mxCell id="0AotN9j1iEKzL87ZU6Ct-41" value="&lt;div&gt;edit&lt;/div&gt;&lt;div&gt;hewan&lt;/div&gt;" style="ellipse;whiteSpace=wrap;html=1;" vertex="1" parent="1">
          <mxGeometry x="670" y="450" width="90" height="60" as="geometry" />
        </mxCell>
        <mxCell id="0AotN9j1iEKzL87ZU6Ct-42" value="" style="endArrow=classic;html=1;rounded=0;strokeColor=default;dashed=1;exitX=0.5;exitY=0;exitDx=0;exitDy=0;entryX=0.5;entryY=1;entryDx=0;entryDy=0;" edge="1" parent="1" source="0AotN9j1iEKzL87ZU6Ct-41" target="0AotN9j1iEKzL87ZU6Ct-36">
          <mxGeometry width="50" height="50" relative="1" as="geometry">
            <mxPoint x="504" y="276" as="sourcePoint" />
            <mxPoint x="559" y="326" as="targetPoint" />
          </mxGeometry>
        </mxCell>
        <mxCell id="0AotN9j1iEKzL87ZU6Ct-43" value="extend" style="edgeLabel;html=1;align=center;verticalAlign=middle;resizable=0;points=[];" vertex="1" connectable="0" parent="0AotN9j1iEKzL87ZU6Ct-42">
          <mxGeometry x="-0.1925" y="-2" relative="1" as="geometry">
            <mxPoint x="-5" y="-1" as="offset" />
          </mxGeometry>
        </mxCell>
        <mxCell id="0AotN9j1iEKzL87ZU6Ct-44" value="&lt;div&gt;&lt;span style=&quot;background-color: transparent; color: light-dark(rgb(0, 0, 0), rgb(255, 255, 255));&quot;&gt;hapus&lt;/span&gt;&lt;/div&gt;&lt;div&gt;&lt;span style=&quot;background-color: transparent; color: light-dark(rgb(0, 0, 0), rgb(255, 255, 255));&quot;&gt;hewan&lt;/span&gt;&lt;/div&gt;" style="ellipse;whiteSpace=wrap;html=1;" vertex="1" parent="1">
          <mxGeometry x="770" y="340" width="90" height="60" as="geometry" />
        </mxCell>
        <mxCell id="0AotN9j1iEKzL87ZU6Ct-45" value="" style="endArrow=classic;html=1;rounded=0;strokeColor=default;dashed=1;entryX=1;entryY=1;entryDx=0;entryDy=0;" edge="1" parent="1" source="0AotN9j1iEKzL87ZU6Ct-44" target="0AotN9j1iEKzL87ZU6Ct-36">
          <mxGeometry width="50" height="50" relative="1" as="geometry">
            <mxPoint x="480" y="350" as="sourcePoint" />
            <mxPoint x="540" y="350" as="targetPoint" />
          </mxGeometry>
        </mxCell>
        <mxCell id="0AotN9j1iEKzL87ZU6Ct-46" value="extend" style="edgeLabel;html=1;align=center;verticalAlign=middle;resizable=0;points=[];" vertex="1" connectable="0" parent="0AotN9j1iEKzL87ZU6Ct-45">
          <mxGeometry x="-0.1925" y="-2" relative="1" as="geometry">
            <mxPoint x="-5" y="-1" as="offset" />
          </mxGeometry>
        </mxCell>
        <mxCell id="0AotN9j1iEKzL87ZU6Ct-47" value="lihat daftar booking" style="ellipse;whiteSpace=wrap;html=1;" vertex="1" parent="1">
          <mxGeometry x="690" y="100" width="90" height="60" as="geometry" />
        </mxCell>
        <mxCell id="0AotN9j1iEKzL87ZU6Ct-48" value="" style="endArrow=classic;html=1;rounded=0;entryX=1;entryY=0.5;entryDx=0;entryDy=0;" edge="1" parent="1" target="0AotN9j1iEKzL87ZU6Ct-47">
          <mxGeometry width="50" height="50" relative="1" as="geometry">
            <mxPoint x="920" y="160" as="sourcePoint" />
            <mxPoint x="690" y="250" as="targetPoint" />
          </mxGeometry>
        </mxCell>
        <mxCell id="0AotN9j1iEKzL87ZU6Ct-49" value="" style="endArrow=classic;html=1;rounded=0;entryX=1;entryY=0.5;entryDx=0;entryDy=0;strokeColor=default;dashed=1;exitX=0;exitY=0.5;exitDx=0;exitDy=0;" edge="1" parent="1" source="0AotN9j1iEKzL87ZU6Ct-47" target="0AotN9j1iEKzL87ZU6Ct-5">
          <mxGeometry width="50" height="50" relative="1" as="geometry">
            <mxPoint x="345" y="280" as="sourcePoint" />
            <mxPoint x="433" y="40" as="targetPoint" />
          </mxGeometry>
        </mxCell>
        <mxCell id="0AotN9j1iEKzL87ZU6Ct-50" value="include" style="edgeLabel;html=1;align=center;verticalAlign=middle;resizable=0;points=[];" vertex="1" connectable="0" parent="0AotN9j1iEKzL87ZU6Ct-49">
          <mxGeometry x="-0.1925" y="-2" relative="1" as="geometry">
            <mxPoint x="-5" y="-1" as="offset" />
          </mxGeometry>
        </mxCell>
        <mxCell id="0AotN9j1iEKzL87ZU6Ct-54" value="&lt;div&gt;lihat&amp;nbsp;&lt;/div&gt;&lt;div&gt;status&amp;nbsp;&lt;/div&gt;&lt;div&gt;tiket&lt;/div&gt;" style="ellipse;whiteSpace=wrap;html=1;" vertex="1" parent="1">
          <mxGeometry x="230" y="360" width="90" height="60" as="geometry" />
        </mxCell>
        <mxCell id="0AotN9j1iEKzL87ZU6Ct-64" value="" style="endArrow=classic;html=1;rounded=0;strokeColor=default;dashed=1;entryX=1;entryY=0.5;entryDx=0;entryDy=0;exitX=0.378;exitY=0.967;exitDx=0;exitDy=0;exitPerimeter=0;" edge="1" parent="1" source="0AotN9j1iEKzL87ZU6Ct-47" target="0AotN9j1iEKzL87ZU6Ct-90">
          <mxGeometry width="50" height="50" relative="1" as="geometry">
            <mxPoint x="547" y="101" as="sourcePoint" />
            <mxPoint x="694.96" y="242.98000000000002" as="targetPoint" />
          </mxGeometry>
        </mxCell>
        <mxCell id="0AotN9j1iEKzL87ZU6Ct-65" value="extend" style="edgeLabel;html=1;align=center;verticalAlign=middle;resizable=0;points=[];" vertex="1" connectable="0" parent="0AotN9j1iEKzL87ZU6Ct-64">
          <mxGeometry x="-0.1925" y="-2" relative="1" as="geometry">
            <mxPoint x="-5" y="-1" as="offset" />
          </mxGeometry>
        </mxCell>
        <mxCell id="0AotN9j1iEKzL87ZU6Ct-66" value="lihat&lt;div&gt;daftar&lt;/div&gt;&lt;div&gt;akun&lt;/div&gt;" style="ellipse;whiteSpace=wrap;html=1;" vertex="1" parent="1">
          <mxGeometry x="870" y="280" width="90" height="60" as="geometry" />
        </mxCell>
        <mxCell id="0AotN9j1iEKzL87ZU6Ct-67" value="" style="endArrow=classic;html=1;rounded=0;entryX=0.5;entryY=0;entryDx=0;entryDy=0;" edge="1" parent="1" target="0AotN9j1iEKzL87ZU6Ct-66">
          <mxGeometry width="50" height="50" relative="1" as="geometry">
            <mxPoint x="940" y="220" as="sourcePoint" />
            <mxPoint x="700" y="280" as="targetPoint" />
          </mxGeometry>
        </mxCell>
        <mxCell id="0AotN9j1iEKzL87ZU6Ct-68" value="hapus&amp;nbsp;&lt;div&gt;akun&lt;/div&gt;" style="ellipse;whiteSpace=wrap;html=1;" vertex="1" parent="1">
          <mxGeometry x="1030" y="290" width="90" height="60" as="geometry" />
        </mxCell>
        <mxCell id="0AotN9j1iEKzL87ZU6Ct-69" value="" style="endArrow=classic;html=1;rounded=0;strokeColor=default;dashed=1;entryX=0;entryY=0.5;entryDx=0;entryDy=0;exitX=1;exitY=0.5;exitDx=0;exitDy=0;" edge="1" parent="1" source="0AotN9j1iEKzL87ZU6Ct-66" target="0AotN9j1iEKzL87ZU6Ct-68">
          <mxGeometry width="50" height="50" relative="1" as="geometry">
            <mxPoint x="610" y="392" as="sourcePoint" />
            <mxPoint x="655" y="310" as="targetPoint" />
          </mxGeometry>
        </mxCell>
        <mxCell id="0AotN9j1iEKzL87ZU6Ct-70" value="extend" style="edgeLabel;html=1;align=center;verticalAlign=middle;resizable=0;points=[];" vertex="1" connectable="0" parent="0AotN9j1iEKzL87ZU6Ct-69">
          <mxGeometry x="-0.1925" y="-2" relative="1" as="geometry">
            <mxPoint x="-5" y="-1" as="offset" />
          </mxGeometry>
        </mxCell>
        <mxCell id="0AotN9j1iEKzL87ZU6Ct-71" value="edit&amp;nbsp;&lt;div&gt;akun&lt;/div&gt;" style="ellipse;whiteSpace=wrap;html=1;" vertex="1" parent="1">
          <mxGeometry x="1010" y="420" width="90" height="60" as="geometry" />
        </mxCell>
        <mxCell id="0AotN9j1iEKzL87ZU6Ct-72" value="" style="endArrow=classic;html=1;rounded=0;strokeColor=default;dashed=1;exitX=1;exitY=1;exitDx=0;exitDy=0;" edge="1" parent="1" source="0AotN9j1iEKzL87ZU6Ct-66" target="0AotN9j1iEKzL87ZU6Ct-71">
          <mxGeometry width="50" height="50" relative="1" as="geometry">
            <mxPoint x="765" y="380" as="sourcePoint" />
            <mxPoint x="765" y="430" as="targetPoint" />
          </mxGeometry>
        </mxCell>
        <mxCell id="0AotN9j1iEKzL87ZU6Ct-73" value="extend" style="edgeLabel;html=1;align=center;verticalAlign=middle;resizable=0;points=[];" vertex="1" connectable="0" parent="0AotN9j1iEKzL87ZU6Ct-72">
          <mxGeometry x="-0.1925" y="-2" relative="1" as="geometry">
            <mxPoint x="-5" y="-1" as="offset" />
          </mxGeometry>
        </mxCell>
        <mxCell id="0AotN9j1iEKzL87ZU6Ct-74" value="" style="endArrow=classic;html=1;rounded=0;entryX=0.944;entryY=0.317;entryDx=0;entryDy=0;entryPerimeter=0;" edge="1" parent="1" target="0AotN9j1iEKzL87ZU6Ct-36">
          <mxGeometry width="50" height="50" relative="1" as="geometry">
            <mxPoint x="930" y="190" as="sourcePoint" />
            <mxPoint x="527" y="178" as="targetPoint" />
          </mxGeometry>
        </mxCell>
        <mxCell id="0AotN9j1iEKzL87ZU6Ct-36" value="kelola&lt;div&gt;data&lt;br&gt;&lt;div&gt;hewan&lt;/div&gt;&lt;/div&gt;" style="ellipse;whiteSpace=wrap;html=1;" vertex="1" parent="1">
          <mxGeometry x="630" y="320" width="90" height="60" as="geometry" />
        </mxCell>
        <mxCell id="0AotN9j1iEKzL87ZU6Ct-75" value="" style="endArrow=classic;html=1;rounded=0;entryX=1;entryY=0;entryDx=0;entryDy=0;strokeColor=default;dashed=1;exitX=0;exitY=0.5;exitDx=0;exitDy=0;" edge="1" parent="1" target="0AotN9j1iEKzL87ZU6Ct-5">
          <mxGeometry width="50" height="50" relative="1" as="geometry">
            <mxPoint x="700" y="50" as="sourcePoint" />
            <mxPoint x="605" y="50" as="targetPoint" />
          </mxGeometry>
        </mxCell>
        <mxCell id="0AotN9j1iEKzL87ZU6Ct-76" value="include" style="edgeLabel;html=1;align=center;verticalAlign=middle;resizable=0;points=[];" vertex="1" connectable="0" parent="0AotN9j1iEKzL87ZU6Ct-75">
          <mxGeometry x="-0.1925" y="-2" relative="1" as="geometry">
            <mxPoint x="-5" y="-1" as="offset" />
          </mxGeometry>
        </mxCell>
        <mxCell id="0AotN9j1iEKzL87ZU6Ct-82" value="" style="endArrow=classic;html=1;rounded=0;entryX=0;entryY=1;entryDx=0;entryDy=0;" edge="1" parent="1" target="0AotN9j1iEKzL87ZU6Ct-28">
          <mxGeometry width="50" height="50" relative="1" as="geometry">
            <mxPoint x="110" y="160" as="sourcePoint" />
            <mxPoint x="125" y="110" as="targetPoint" />
          </mxGeometry>
        </mxCell>
        <mxCell id="0AotN9j1iEKzL87ZU6Ct-85" style="edgeStyle=orthogonalEdgeStyle;rounded=0;orthogonalLoop=1;jettySize=auto;html=1;exitX=0;exitY=0.5;exitDx=0;exitDy=0;entryX=0.558;entryY=1;entryDx=0;entryDy=0;entryPerimeter=0;dashed=1;" edge="1" parent="1" source="0AotN9j1iEKzL87ZU6Ct-36" target="0AotN9j1iEKzL87ZU6Ct-5">
          <mxGeometry relative="1" as="geometry" />
        </mxCell>
        <mxCell id="0AotN9j1iEKzL87ZU6Ct-86" value="include" style="edgeLabel;html=1;align=center;verticalAlign=middle;resizable=0;points=[];" vertex="1" connectable="0" parent="0AotN9j1iEKzL87ZU6Ct-85">
          <mxGeometry x="0.2343" y="-1" relative="1" as="geometry">
            <mxPoint as="offset" />
          </mxGeometry>
        </mxCell>
        <mxCell id="0AotN9j1iEKzL87ZU6Ct-88" value="" style="endArrow=classic;html=1;rounded=0;strokeColor=default;dashed=1;entryX=0;entryY=0.283;entryDx=0;entryDy=0;entryPerimeter=0;" edge="1" parent="1" source="0AotN9j1iEKzL87ZU6Ct-18" target="0AotN9j1iEKzL87ZU6Ct-54">
          <mxGeometry width="50" height="50" relative="1" as="geometry">
            <mxPoint x="283" y="311" as="sourcePoint" />
            <mxPoint x="199" y="324" as="targetPoint" />
          </mxGeometry>
        </mxCell>
        <mxCell id="0AotN9j1iEKzL87ZU6Ct-89" value="extend" style="edgeLabel;html=1;align=center;verticalAlign=middle;resizable=0;points=[];" vertex="1" connectable="0" parent="0AotN9j1iEKzL87ZU6Ct-88">
          <mxGeometry x="-0.1925" y="-2" relative="1" as="geometry">
            <mxPoint x="-5" y="-1" as="offset" />
          </mxGeometry>
        </mxCell>
        <mxCell id="0AotN9j1iEKzL87ZU6Ct-90" value="&lt;div&gt;cetak&lt;/div&gt;&lt;div&gt;struk&lt;/div&gt;" style="ellipse;whiteSpace=wrap;html=1;" vertex="1" parent="1">
          <mxGeometry x="580" y="200" width="90" height="60" as="geometry" />
        </mxCell>
      </root>
    </mxGraphModel>
  </diagram>
</mxfile>
